<?xml version="1.0" standalone="no"?><!DOCTYPE svg PUBLIC "-//W3C//DTD SVG 1.1//EN" "http://www.w3.org/Graphics/SVG/1.1/DTD/svg11.dtd"><svg t="1586398880760" class="icon" viewBox="0 0 1024 1024" version="1.1" xmlns="http://www.w3.org/2000/svg" p-id="1650" xmlns:xlink="http://www.w3.org/1999/xlink" width="128" height="128"><defs><style type="text/css"></style></defs><path d="M930.133333 270.506667a188.586667 188.586667 0 0 0-147.626666-40.96 289.28 289.28 0 0 0-36.693334 9.386666 265.386667 265.386667 0 0 0-85.333333-70.826666 209.92 209.92 0 0 0-170.666667-5.973334 284.16 284.16 0 0 0-136.533333 103.253334 276.48 276.48 0 0 0-170.666667-13.653334A205.653333 205.653333 0 0 0 43.52 349.866667a291.84 291.84 0 0 0-24.746667 231.253333C64 733.013333 225.28 829.44 512 877.226667h10.24l26.453333-11.946667c18.773333-17.066667 34.986667-33.28 52.053334-50.346667l57.173333 27.306667h10.24l27.306667-6.826667C919.893333 719.36 1024 597.333333 1018.026667 455.68a261.973333 261.973333 0 0 0-87.893334-185.173333zM512 789.333333c-241.493333-41.813333-378.026667-120.32-411.306667-232.106666a204.8 204.8 0 0 1 16.213334-162.986667 120.32 120.32 0 0 1 85.333333-58.88 204.8 204.8 0 0 1 47.786667-5.12 164.693333 164.693333 0 0 1 96.426666 28.16l44.373334 31.573333L409.6 341.333333a186.88 186.88 0 0 1 109.226667-99.84 122.88 122.88 0 0 1 102.4 0 209.066667 209.066667 0 0 1 102.4 128C756.906667 485.546667 682.666667 625.493333 512 789.333333z m170.666667-33.28l-19.626667-5.12C793.6 602.453333 840.533333 470.186667 805.546667 349.013333c0-11.946667-9.386667-23.04-14.506667-34.133333h4.266667a99.84 99.84 0 0 1 80.213333 23.04 170.666667 170.666667 0 0 1 57.173333 122.88C938.666667 557.226667 853.333333 657.066667 674.133333 756.053333z" p-id="1651"></path></svg>