<?xml version="1.0" standalone="no"?><!DOCTYPE svg PUBLIC "-//W3C//DTD SVG 1.1//EN" "http://www.w3.org/Graphics/SVG/1.1/DTD/svg11.dtd"><svg t="1586398894163" class="icon" viewBox="0 0 1024 1024" version="1.1" xmlns="http://www.w3.org/2000/svg" p-id="1784" xmlns:xlink="http://www.w3.org/1999/xlink" width="128" height="128"><defs><style type="text/css"></style></defs><path d="M863.41 66.23h-732c-17.67 0-32 14.33-32 32V928.3c0 17.67 14.33 32 32 32h281.12c17.67 0 32-14.33 32-32s-14.33-32-32-32H163.41V130.23h668v328.3c0 17.67 14.33 32 32 32s32-14.33 32-32V98.23c0-17.68-14.33-32-32-32z" p-id="1785"></path><path d="M767.57 257.77c0-17.67-14.33-32-32-32H259.09c-17.67 0-32 14.33-32 32s14.33 32 32 32h476.48c17.68 0 32-14.33 32-32zM269.82 444.56c-17.67 0-32 14.33-32 32s14.33 32 32 32h327.9c17.67 0 32-14.33 32-32s-14.33-32-32-32h-327.9zM448.34 657.12H259.09c-17.67 0-32 14.33-32 32s14.33 32 32 32h189.25c17.67 0 32-14.33 32-32s-14.32-32-32-32zM884.62 609.16c-13.67-13.67-35.83-13.67-49.5 0l-99 99-99-99c-13.67-13.67-35.83-13.67-49.5 0-13.67 13.67-13.67 35.83 0 49.5l99 99-99 99c-13.67 13.67-13.67 35.83 0 49.5 6.83 6.83 15.79 10.25 24.75 10.25s17.91-3.42 24.75-10.25l99-99 99 99c6.83 6.83 15.79 10.25 24.75 10.25s17.91-3.42 24.75-10.25c13.67-13.67 13.67-35.83 0-49.5l-99-99 99-99c13.67-13.67 13.67-35.83 0-49.5z" p-id="1786"></path></svg>