<?xml version="1.0" standalone="no"?><!DOCTYPE svg PUBLIC "-//W3C//DTD SVG 1.1//EN" "http://www.w3.org/Graphics/SVG/1.1/DTD/svg11.dtd"><svg t="1586398827642" class="icon" viewBox="0 0 1024 1024" version="1.1" xmlns="http://www.w3.org/2000/svg" p-id="1241" xmlns:xlink="http://www.w3.org/1999/xlink" width="128" height="128"><defs><style type="text/css"></style></defs><path d="M924.046413 27.505933c7.864127 8.616676 13.764104 18.113832 17.677355 28.498996 3.973454 10.362587 5.930079 21.492773 5.915028 33.413135 0.075255 22.606544-7.796398 43.263989-23.584857 61.919656-18.670718 17.158096-38.658395 25.684466-59.94798 25.549007-8.187723 0.015051-16.390497-1.956625-24.56317-5.892451-14.298414-3.883148-26.738033-10.422791-37.348961-19.656556-18.482581-18.708345-27.656142-39.350739-27.520683-61.919656 0-11.784903 1.324485-22.915089 3.935826-33.413135a120.633457 120.633457 0 0 1 23.584857-28.498996c15.931443-18.38475 36.566311-27.565836 61.919656-27.505632l17.68488 1.956625c17.45159 5.222684 31.53929 13.741528 42.248049 25.549007zM682.312919 222.07724a27.166986 27.166986 0 0 0-5.915028 16.699042c0.075255 4.868986 0.729972 9.135934 1.979201 12.778266 1.362112 1.497571 2.66402 4.108913 3.935827 7.871653 6.238624 3.777791 12.454671 5.734416 18.655667 5.892451 7.502904-0.173086 13.718952-2.129711 18.670718-5.892451 5.102276-6.298827 7.713618-13.169591 7.864127-20.649919-0.15051-6.163369-2.761851-11.732225-7.864127-16.699042a32.111227 32.111227 0 0 0-7.849077-5.892452 33.262625 33.262625 0 0 0-10.821641-1.979201h-7.849077c-4.823833 1.444892-8.413488 4.071285-10.80659 7.871653z m-21.635757-21.605656c10.671132-11.860158 24.111641-17.752609 40.291424-17.692405 10.821641-0.037627 21.628232 2.588765 32.434822 7.864127 4.011081 2.633918 7.292191 5.915028 9.828278 9.828278l5.892452 3.920776c6.81056 10.994727 10.09167 23.103226 9.828277 36.370648 0.097831 16.11958-5.147429 29.552563-15.720729 40.283899-10.686183 13.199693-24.773883 19.746862-42.2631 19.649031-16.066902 0.037627-29.477308-6.502015-40.291424-19.649031-3.928301-1.264281-6.562219-3.228431-7.849077-5.892451-6.599847-9.421902-9.880956-20.875684-9.828278-34.391448v-17.69993c3.920776-8.428539 9.828278-15.96907 17.677355-22.591494zM833.627761 60.919068c-7.660939 7.578159-11.596766 16.413074-11.784902 26.542371 0.112882 10.09167 4.033658 19.596352 11.784902 28.483945 8.812338 7.660939 17.654778 11.574189 26.549897 11.799954h3.928301c10.084144-0.158035 18.93411-4.086336 26.52732-11.799954 6.374082-8.789762 9.655192-18.294444 9.828278-28.483945-0.188137-10.114246-3.469247-18.941635-9.828278-26.542371l-11.784903-5.892451c-6.276251-3.875623-11.19039-5.854824-14.742417-5.892452-11.416154 0.135459-21.575553 4.06376-30.478198 11.784903z m21.635758 311.517278l-19.656556 14.742417v527.69424c-23.471975 72.681094-65.403954 109.051742-125.788412 109.074319h-2.942463c-60.745681-3.837995-104.965406-39.862472-132.659175-108.096007V389.127863l-21.628232-21.613181v-38.327274l13.764104-10.80659h268.26834l20.642394 17.677354v36.378174z m-237.82777 42.240524v500.188607c17.000061 38.598191 48.132975 61.859452 93.353589 69.768733 37.364012-5.373193 65.200766-28.634454 83.525312-69.768733V414.67687H617.435749z m22.61407 170.993975h129.701661l1.000889 0.978312v308.56729c-9.30902 37.446792-31.915564 56.11751-67.804582 56.004628-28.002314-2.460832-49.284374-20.807954-63.876281-55.026316V586.649157l0.978313-0.978312z m-373.421883-406.827493h249.605147l0.978312 0.978313v74.697922l-0.978312 0.978313h-10.80659v232.891054l47.154662 85.504513v114.959245l-0.978312 0.978313-95.302689-188.663804V277.103555H320.675939v223.085353l-198.484557 403.869979c-4.605594 16.465752-3.627282 29.906261 2.934938 40.291424 7.254563 12.070871 21.665859 20.243543 43.241413 24.563169h410.763319l54.048003 53.069691-1.000889 1.956625H164.431906c-63.605364-21.154127-92.759076-60.783308-87.461138-118.895071 0-7.811449 0.669768-16.330293 1.979202-25.549007l200.471283-391.114289V255.4979h-12.785792l-0.978312-0.978313v-74.697922l0.970787-0.978313z m220.127839 503.138596l67.804582 127.745037v111.038469l-309.545602 0.978313h-3.935827c-29.688022-6.622423-42.451237-24.64595-38.327274-54.048003 1.301908-5.297938 1.956625-9.888482 1.956625-13.741528L291.191105 681.981948h195.56467z" p-id="1242"></path></svg>