<?xml version="1.0" standalone="no"?><!DOCTYPE svg PUBLIC "-//W3C//DTD SVG 1.1//EN" "http://www.w3.org/Graphics/SVG/1.1/DTD/svg11.dtd"><svg t="1587889361962" class="icon" viewBox="0 0 1024 1024" version="1.1" xmlns="http://www.w3.org/2000/svg" p-id="2017" xmlns:xlink="http://www.w3.org/1999/xlink" width="128" height="128"><defs><style type="text/css"></style></defs><path d="M500.902167 643.785697C329.739016 643.785697 191.002531 505.080242 191.002531 333.886061S329.739016 23.986424 500.902167 23.986424s309.930667 138.736485 309.930667 309.899637S672.065319 643.785697 500.902167 643.785697z m0-62.060606a247.83903 247.83903 0 1 0 0-495.678061 247.83903 247.83903 0 0 0 0 495.678061z" fill="#9A68B4" p-id="2018"></path><path d="M303.363258 775.447273m34.84703 0l325.383758 0q34.84703 0 34.84703 34.84703l0 0.03103q0 34.84703-34.84703 34.847031l-325.383758 0q-34.84703 0-34.84703-34.847031l0-0.03103q0-34.84703 34.84703-34.84703Z" fill="#9A68B4" p-id="2019"></path><path d="M535.749198 612.755394m0 34.84703l0 325.383758q0 34.84703-34.847031 34.84703l-0.03103 0q-34.84703 0-34.84703-34.84703l0-325.383758q0-34.84703 34.84703-34.84703l0.03103 0q34.84703 0 34.847031 34.84703Z" fill="#9A68B4" p-id="2020"></path></svg>