<?xml version="1.0" standalone="no"?><!DOCTYPE svg PUBLIC "-//W3C//DTD SVG 1.1//EN" "http://www.w3.org/Graphics/SVG/1.1/DTD/svg11.dtd"><svg t="1587279339889" class="icon" viewBox="0 0 1024 1024" version="1.1" xmlns="http://www.w3.org/2000/svg" p-id="1734" xmlns:xlink="http://www.w3.org/1999/xlink" width="128" height="128"><defs><style type="text/css"></style></defs><path d="M886.253037 386.351407a113.626074 113.626074 0 0 1 48.090074 92.918519v396.743111a113.777778 113.777778 0 0 1-113.777778 113.777778H203.434667a113.777778 113.777778 0 0 1-113.777778-113.777778V479.269926c0-28.027259 10.126222-53.665185 26.927407-73.462519h-1.213629l313.874963-313.874963a114.991407 114.991407 0 0 1 162.588444 0l294.418963 294.418963z" fill="#F0F0F0" p-id="1735"></path><path d="M136.988444 392.078222l-5.95437 7.016297a94.359704 94.359704 0 0 0-22.376296 61.212444v396.743111a94.814815 94.814815 0 0 0 94.814815 94.814815h617.054814a94.814815 94.814815 0 0 0 94.814815-94.814815V460.306963c0-31.175111-15.094519-59.771259-40.049778-77.444741l-2.427259-2.048-294.418963-294.418963a96.028444 96.028444 0 0 0-135.774815 0l-305.682963 305.682963z m816.31763 68.228741v396.743111a132.740741 132.740741 0 0 1-132.740741 132.740741H203.434667a132.740741 132.740741 0 0 1-132.740741-132.740741V460.306963c0-19.076741 4.058074-37.546667 11.643259-54.423704l333.482667-346.301629a133.95437 133.95437 0 0 1 189.44 0l293.319111 293.319111a132.551111 132.551111 0 0 1 54.727111 107.406222z" fill="#C1C1C1" p-id="1736"></path><path d="M175.634963 961.005037l-53.741037 0.113778 310.613333-310.613334a113.360593 113.360593 0 0 1 74.600297-33.147259c31.023407-1.592889 62.577778 9.481481 86.281481 33.185185l308.717037 308.717037-53.475555 0.151704-282.055112-282.055111a75.548444 75.548444 0 0 0-57.533629-22.110815 75.434667 75.434667 0 0 0-49.758815 22.110815l-283.648 283.648z m0 0l-53.741037 0.113778 310.613333-310.613334a113.360593 113.360593 0 0 1 74.600297-33.147259c31.023407-1.592889 62.577778 9.481481 86.281481 33.185185l308.717037 308.717037-53.475555 0.151704-282.055112-282.055111a75.548444 75.548444 0 0 0-57.533629-22.110815 75.434667 75.434667 0 0 0-49.758815 22.110815l-283.648 283.648z" fill="#C1C1C1" p-id="1737"></path><path d="M512 604.728889m-113.777778 0a113.777778 113.777778 0 1 0 227.555556 0 113.777778 113.777778 0 1 0-227.555556 0Z" fill="#F0F0F0" p-id="1738"></path><path d="M848.365037 395.07437l53.741037-0.113777-310.613333 310.613333a113.777778 113.777778 0 0 1-160.881778 0l-308.717037-308.717037 53.475555-0.151704 282.055112 282.017185a75.851852 75.851852 0 0 0 107.292444 0l283.648-283.648z m0 0l53.741037-0.113777-310.613333 310.613333a113.777778 113.777778 0 0 1-160.881778 0l-308.717037-308.717037 53.475555-0.151704 282.055112 282.017185a75.851852 75.851852 0 0 0 107.292444 0l283.648-283.648z" fill="#C1C1C1" p-id="1739"></path></svg>