<?xml version="1.0" standalone="no"?><!DOCTYPE svg PUBLIC "-//W3C//DTD SVG 1.1//EN" "http://www.w3.org/Graphics/SVG/1.1/DTD/svg11.dtd"><svg t="1587476127327" class="icon" viewBox="0 0 1024 1024" version="1.1" xmlns="http://www.w3.org/2000/svg" p-id="1488" xmlns:xlink="http://www.w3.org/1999/xlink" width="128" height="128"><defs><style type="text/css"></style></defs><path d="M401.23904 368.855579m53.894737 0l53.894737 0q53.894737 0 53.894737 53.894737l0 485.052631q0 53.894737-53.894737 53.894737l-53.894737 0q-53.894737 0-53.894737-53.894737l0-485.052631q0-53.894737 53.894737-53.894737Z" fill="#00CB7C" p-id="1489"></path><path d="M482.081145 395.802947a107.789474 107.789474 0 1 0 0-215.578947 107.789474 107.789474 0 0 0 0 215.578947z m0 161.684211a269.473684 269.473684 0 1 1 0-538.947369 269.473684 269.473684 0 0 1 0 538.947369z" fill="#00CB7C" p-id="1490"></path></svg>