<?xml version="1.0" standalone="no"?><!DOCTYPE svg PUBLIC "-//W3C//DTD SVG 1.1//EN" "http://www.w3.org/Graphics/SVG/1.1/DTD/svg11.dtd"><svg t="1587267153554" class="icon" viewBox="0 0 5440 1024" version="1.1" xmlns="http://www.w3.org/2000/svg" p-id="1478" xmlns:xlink="http://www.w3.org/1999/xlink" width="680" height="128"><defs><style type="text/css"></style></defs><path d="M578.496 472.224l-31.328 78.976h168.672l105.216 263.744h234.432l-136.704-342.72h-234.464zM318.912 1000.896l28-70.88L7.68 999.68z" fill="#00CB7C" p-id="1479"></path><path d="M35.776 928.96l311.136 1.056 28.096-70.752z" fill="#00CB7C" p-id="1480"></path><path d="M403.456 788.48L64.096 858.112l311.232 1.184zM431.36 717.76L92.064 787.328l311.136 1.184zM459.232 646.976L120 716.544l311.136 1.216zM487.36 576.128L148.064 645.792l311.232 1.184zM515.232 505.376l-339.2 69.664 311.2 1.088zM543.456 434.624L204.128 504.288l311.232 1.088zM571.36 363.84L232.128 433.44l311.104 1.216zM599.68 293.12L260.448 362.624l311.232 1.216zM627.904 222.336L288.544 291.904l311.232 1.184zM655.776 151.488L316.48 221.12l311.232 1.184zM683.904 80.736L344.64 150.4l311.104 1.088zM711.808 9.984L372.576 79.648l311.232 1.088zM998.752 861.856l-9.376 23.616h86.144l-9.376-23.616s-61.536-0.096-67.392 0zM976.192 919.712l-9.28 23.648h132.256l-9.376-23.744zM1112.48 977.6h-159.712l-9.376 23.616h179.072zM403.648 862.08l-55.264 139.232h49.504l55.168-139.232zM577.312 862.08l-36.736 92.64-12.864-92.64h-49.536l-55.264 139.232h49.536l36.736-92.736 12.992 92.736H571.52l55.264-139.232zM924.64 862.08l-36.832 92.736-12.896-92.096h-0.32l0.32-0.64h-49.504L770.24 1001.28h49.408l36.736-92.64 12.992 92.64h49.408l55.264-139.232zM750.88 862.08h-98.912l-55.68 139.232h149.056l55.264-139.232h-49.728z m-45.792 115.52h-49.504l36.416-91.904h49.504l-36.416 91.904z" fill="#00CB7C" p-id="1481"></path><path d="M1550.4 746.464V154.4H1443.2v592.064h-0.544v109.12H1898.56v-109.12zM3040.64 389.536h107.232v467.456H3040.64zM3040.64 154.4h107.232v124.608H3040.64zM2245.28 280.544h-196.48c-71.84 0.064-130.08 59.264-130.208 132.384v309.6c0.128 73.12 58.368 132.352 130.24 132.384h196.448c7.68-0.032 15.392-0.768 23.008-2.144v1.728h107.2V412.928c-0.096-73.12-58.368-132.32-130.24-132.384z m22.688 441.984a23.2 23.2 0 0 1-23.04 23.296h-196.096a23.2 23.2 0 0 1-23.008-23.296v-309.6a23.2 23.2 0 0 1 23.008-22.848h196.448c12.352 0.16 22.4 10.272 22.688 22.848v309.6zM2808.416 280.544h-196.544c-7.68 0-15.36 0.736-22.88 2.144V154.4h-107.232V856h107.2v-2.816c7.584 1.376 15.232 2.112 22.912 2.176h196.544a129.184 129.184 0 0 0 92.256-38.912 133.824 133.824 0 0 0 38.08-93.92v-309.6c-0.128-73.152-58.432-132.384-130.336-132.384z m23.04 441.984a23.2 23.2 0 0 1-23.04 23.296h-196.544a23.104 23.104 0 0 1-22.88-23.296v-309.6a23.2 23.2 0 0 1 22.88-22.848h196.544c12.704 0 23.04 10.464 23.04 23.392v309.056zM4152.576 854.912h-196.768c-71.84-0.032-130.08-59.264-130.208-132.384v-309.6c0.128-73.12 58.368-132.32 130.24-132.384h196.736c71.744 0.224 129.792 59.392 129.92 132.384v309.6c-0.128 72.96-58.176 132.16-129.92 132.384zM3955.84 390.08a22.784 22.784 0 0 0-16.256 6.848 23.616 23.616 0 0 0-6.72 16.544v309.6a23.2 23.2 0 0 0 22.976 23.296h196.8a23.2 23.2 0 0 0 22.976-23.296v-310.144a23.2 23.2 0 0 0-23.008-22.848h-196.768zM3589.536 280.544h-196.448c-7.84 0-15.68 0.704-23.424 2.144V279.04h-107.2v577.856h107.2V412.608a23.168 23.168 0 0 1 23.424-22.528h196.48c12.672 0 22.976 10.464 22.976 23.392v442.56h107.2V412.896c-0.096-73.12-58.336-132.32-130.208-132.384zM4728.832 280.544h-196.448c-7.68 0-15.392 0.704-22.976 2.144V279.04h-107.232v577.856h107.2V412.608a23.2 23.2 0 0 1 23.04-22.528h196.416c12.704 0 23.008 10.464 23.008 23.392v442.56h107.2V412.896c-0.096-73.12-58.336-132.32-130.208-132.384zM5314.56 279.04h-349.664v109.12h456.8zM4964.896 513.184v108.992h456.8l-107.136-108.992zM4964.896 747.328v108.992h456.8l-107.136-108.992z" fill="#333333" p-id="1482"></path></svg>