<?xml version="1.0" standalone="no"?><!DOCTYPE svg PUBLIC "-//W3C//DTD SVG 1.1//EN" "http://www.w3.org/Graphics/SVG/1.1/DTD/svg11.dtd"><svg t="1587889376728" class="icon" viewBox="0 0 1024 1024" version="1.1" xmlns="http://www.w3.org/2000/svg" p-id="2153" xmlns:xlink="http://www.w3.org/1999/xlink" width="128" height="128"><defs><style type="text/css"></style></defs><path d="M509.504073 610.069943c-161.3824 0-292.191086-130.808686-292.191086-292.191086S348.121673 25.658514 509.504073 25.658514s292.191086 130.837943 292.191086 292.220343c0 161.3824-130.808686 292.191086-292.191086 292.191086z m0-58.514286a233.6768 233.6768 0 1 0 0-467.382857 233.6768 233.6768 0 0 0 0 467.382857z" fill="#58A2FB" p-id="2154"></path><path d="M542.359845 580.8128m0 32.855771l0 306.7904q0 32.855771-32.855772 32.855772l-0.029257 0q-32.855771 0-32.855771-32.855772l0-306.7904q0-32.855771 32.855771-32.855771l0.029257 0q32.855771 0 32.855772 32.855771Z" fill="#58A2FB" p-id="2155"></path><path d="M509.884416 931.488914l165.507657-165.507657a29.257143 29.257143 0 1 1 41.3696 41.3696l-186.192457 186.192457a29.257143 29.257143 0 0 1-41.3696 0l-186.192457-186.192457a29.257143 29.257143 0 0 1 41.3696-41.3696l165.507657 165.507657z" fill="#58A2FB" p-id="2156"></path></svg>