<?xml version="1.0" standalone="no"?><!DOCTYPE svg PUBLIC "-//W3C//DTD SVG 1.1//EN" "http://www.w3.org/Graphics/SVG/1.1/DTD/svg11.dtd"><svg t="1587888923698" class="icon" viewBox="0 0 1024 1024" version="1.1" xmlns="http://www.w3.org/2000/svg" p-id="1518" xmlns:xlink="http://www.w3.org/1999/xlink" width="128" height="128"><defs><style type="text/css"></style></defs><path d="M175.542857 331.580952v-24.380952C185.295238 243.809524 234.057143 195.047619 282.819048 195.047619H292.571429c19.504762 4.87619 39.009524 14.628571 53.638095 34.133333 19.504762 0 39.009524 4.87619 58.514286 19.504762 9.752381 9.752381 19.504762 19.504762 24.380952 29.257143l209.67619-34.133333c39.009524-4.87619 78.019048-4.87619 117.028572 9.752381 112.152381 39.009524 185.295238 151.161905 185.295238 277.942857 0 24.380952-4.87619 53.638095-19.504762 73.142857 48.761905 9.752381 87.771429 58.514286 87.771429 112.152381 0 63.390476-48.761905 117.028571-107.276191 117.028571h-346.209524c-14.628571 0-24.380952-9.752381-24.380952-24.380952s9.752381-24.380952 24.380952-24.380952h346.209524c34.133333 0 58.514286-29.257143 58.514286-63.390477 0-34.133333-24.380952-63.390476-58.514286-63.390476H877.714286c-24.380952 19.504762-48.761905 29.257143-78.019048 29.257143H82.895238c-43.885714-4.87619-82.895238-48.761905-82.895238-97.523809 0-58.514286 19.504762-121.904762 53.638095-170.666667 29.257143-43.885714 73.142857-73.142857 121.904762-87.771429z m117.028572 0c-14.628571 19.504762-19.504762 39.009524-14.628572 58.514286 4.87619 14.628571-4.87619 24.380952-14.628571 29.257143-14.628571 4.87619-24.380952-4.87619-29.257143-14.628571 0-9.752381-4.87619-19.504762-4.876191-24.380953l-24.380952 4.876191c-43.885714 9.752381-82.895238 34.133333-107.27619 68.266666-29.257143 34.133333-43.885714 78.019048-43.885715 121.904762 0 19.504762 14.628571 39.009524 34.133334 39.009524h126.780952c9.752381-34.133333 34.133333-58.514286 68.266667-68.266667L341.333333 536.380952c14.628571-4.87619 24.380952 4.87619 24.380953 19.504762 4.87619 14.628571-4.87619 24.380952-19.504762 29.257143l-53.638095 9.752381c-14.628571 4.87619-24.380952 9.752381-29.257143 19.504762h341.333333c9.752381-34.133333 34.133333-58.514286 68.266667-68.266667L731.428571 536.380952c14.628571-4.87619 24.380952 4.87619 24.380953 19.504762 4.87619 14.628571-4.87619 24.380952-19.504762 29.257143l-58.514286 9.752381c-14.628571 4.87619-24.380952 9.752381-29.257143 19.504762h136.533334c48.761905 0 87.771429-39.009524 87.771428-92.647619 0-92.647619-58.514286-180.419048-151.161905-209.676191-29.257143-9.752381-63.390476-9.752381-92.647619-9.75238l-195.047619 29.257142c0 29.257143-9.752381 53.638095-24.380952 78.019048-34.133333 48.761905-92.647619 48.761905-92.647619 48.761905-9.752381 0-19.504762-9.752381-24.380952-19.504762 0-14.628571 9.752381-24.380952 19.504761-24.380953 19.504762 0 43.885714-14.628571 58.514286-34.133333 14.628571-19.504762 19.504762-39.009524 14.628572-53.638095 0-9.752381-4.87619-19.504762-14.628572-29.257143h-14.628571c-24.380952 0-48.761905 9.752381-63.390476 34.133333z" p-id="1519"></path><path d="M297.447619 253.561905h4.876191c-14.628571 9.752381-29.257143 24.380952-39.009524 39.009524-4.87619 9.752381-9.752381 14.628571-14.628572 24.380952l-19.504762 4.87619v-4.87619c9.752381-39.009524 39.009524-68.266667 68.266667-63.390476" p-id="1520"></path><path d="M809.447619 429.104762c9.752381 9.752381 9.752381 24.380952 4.876191 34.133333-4.87619 4.87619-9.752381 9.752381-19.504762 9.752381-4.87619 0-9.752381 0-14.628572-4.87619-9.752381-9.752381-24.380952-14.628571-34.133333-19.504762-9.752381-4.87619-19.504762-4.87619-29.257143-4.876191h-14.628571l-136.533334 19.504762c-14.628571 0-24.380952-9.752381-24.380952-19.504762 0-14.628571 4.87619-29.257143 19.504762-29.257143l131.657143-24.380952c24.380952-4.87619 48.761905 0 68.266666 4.876191 19.504762 9.752381 34.133333 19.504762 48.761905 34.133333" p-id="1521"></path><path d="M180.419048 463.238095c19.504762 0 39.009524 14.628571 39.009523 39.009524 0 19.504762-14.628571 39.009524-39.009523 39.009524s-34.133333-19.504762-34.133334-43.885714c0-19.504762 14.628571-34.133333 34.133334-34.133334" p-id="1522"></path></svg>