<?xml version="1.0" standalone="no"?><!DOCTYPE svg PUBLIC "-//W3C//DTD SVG 1.1//EN" "http://www.w3.org/Graphics/SVG/1.1/DTD/svg11.dtd"><svg t="1587279306088" class="icon" viewBox="0 0 1177 1024" version="1.1" xmlns="http://www.w3.org/2000/svg" p-id="1605" xmlns:xlink="http://www.w3.org/1999/xlink" width="147.125" height="128"><defs><style type="text/css"></style></defs><path d="M0 139.665m151.809783 0l860.255438 0q151.809783 0 151.809783 151.809784l0 556.635871q0 151.809783-151.809783 151.809783l-860.255438 0q-151.809783 0-151.809783-151.809783l0-556.635871q0-151.809783 151.809783-151.809784Z" fill="#DFECF4" p-id="1606"></path><path d="M151.809783 190.268262a101.206522 101.206522 0 0 0-101.206522 101.206522v556.635871a101.206522 101.206522 0 0 0 101.206522 101.206522h860.255438a101.206522 101.206522 0 0 0 101.206522-101.206522V291.474784a101.206522 101.206522 0 0 0-101.206522-101.206522H151.809783z m0-50.603262h860.255438a151.809783 151.809783 0 0 1 151.809783 151.809784v556.635871a151.809783 151.809783 0 0 1-151.809783 151.809783H151.809783a151.809783 151.809783 0 0 1-151.809783-151.809783V291.474784a151.809783 151.809783 0 0 1 151.809783-151.809784z" fill="#58A2FB" p-id="1607"></path><path d="M133.13718 941.170052l-71.704821 0.15181 414.440708-414.440708a151.809783 151.809783 0 0 1 214.659033 0l411.910545 411.961148-71.350598 0.202413-376.336452-376.336452a101.206522 101.206522 0 0 0-143.156626 0l-378.461789 378.461789z m-71.704821 0.15181l414.440708-414.440708a151.809783 151.809783 0 0 1 214.659033 0l411.910545 411.961148-71.350598 0.202413-376.336452-376.336452a101.206522 101.206522 0 0 0-143.156626 0l-378.461789 378.461789-71.704821 0.15181z" fill="#58A2FB" p-id="1608"></path><path d="M1102.442645 185.916381l-414.440708 414.440708a151.809783 151.809783 0 0 1-214.659033 0l-411.910545-411.910545" fill="#DFECF4" p-id="1609"></path><path d="M1030.737824 186.068191l71.704821-0.15181-414.440708 414.440708a151.809783 151.809783 0 0 1-214.659033 0l-411.910545-411.910545 71.350598-0.202413 376.336452 376.285849a101.206522 101.206522 0 0 0 143.156626 0l378.461789-378.461789z m0 0l71.704821-0.15181-414.440708 414.440708a151.809783 151.809783 0 0 1-214.659033 0l-411.910545-411.910545 71.350598-0.202413 376.336452 376.285849a101.206522 101.206522 0 0 0 143.156626 0l378.461789-378.461789z" fill="#58A2FB" p-id="1610"></path><path d="M986.76359 187.181463m-177.111413 0a177.111414 177.111414 0 1 0 354.222827 0 177.111414 177.111414 0 1 0-354.222827 0Z" fill="#EB5444" p-id="1611"></path></svg>