<?xml version="1.0" standalone="no"?><!DOCTYPE svg PUBLIC "-//W3C//DTD SVG 1.1//EN" "http://www.w3.org/Graphics/SVG/1.1/DTD/svg11.dtd"><svg t="1587892664598" class="icon" viewBox="0 0 1075 1024" version="1.1" xmlns="http://www.w3.org/2000/svg" p-id="2426" xmlns:xlink="http://www.w3.org/1999/xlink" width="134.375" height="128"><defs><style type="text/css"></style></defs><path d="M1021.312 637.8496H52.992c-20.7872 0-39.424 11.4688-47.3344 29.696a45.6192 45.6192 0 0 0 10.752 52.0192l305.5616 287.744c20.096 18.8928 52.3776 18.8928 71.7312 0 20.0704-18.944 20.0704-49.3056 0-67.5584l-218.7776-206.0032h845.6704c27.9552 0 50.9184-21.6064 50.9184-47.9488 0.7168-26.3424-22.2464-47.9488-50.2016-47.9488zM52.992 339.968h968.32c20.7872 0 39.424-11.4688 47.3344-29.696 2.8672-6.0928 3.584-12.16 3.584-18.2528 0-12.16-5.0176-24.9856-15.0528-33.792L802.5344 17.8176c-20.0704-18.8928-52.352-18.8928-71.7312 0-20.0704 18.944-20.0704 49.3056 0 67.5584l167.8592 158.0288H52.992c-27.9552 0-50.9184 21.632-50.9184 47.9744 0 26.3424 22.9632 48.64 50.944 48.64z" fill="#00CB7C" p-id="2427"></path></svg>