<?xml version="1.0" standalone="no"?><!DOCTYPE svg PUBLIC "-//W3C//DTD SVG 1.1//EN" "http://www.w3.org/Graphics/SVG/1.1/DTD/svg11.dtd"><svg t="1586399195968" class="icon" viewBox="0 0 1024 1024" version="1.1" xmlns="http://www.w3.org/2000/svg" p-id="6335" xmlns:xlink="http://www.w3.org/1999/xlink" width="128" height="128"><defs><style type="text/css"></style></defs><path d="M881.025 759.969a21.336 21.336 0 0 1-3.29-42.41c0.133-0.022 0.8-0.15 1.696-0.337-36.987-84.698-123.611-162.497-317.214-162.497-59.374 0-126.587 12.415-195.485 36.033-26.631-56.366-77.857-89.093-127.802-79.366-31.666 6.149-57.892 27.917-73.836 61.326-14.932 31.228-19.07 69.367-11.69 107.405a201.25 201.25 0 0 0 3.893 16.27C64.183 760.716 9.07 828.899 9.07 880.477 9.07 1006.605 231.853 1024 472.596 1024c232.003 0 432.362 0 432.362-174.629 0-27.266-2.751-59.096-11.396-91.551a137.583 137.583 0 0 1-9.214 1.898 22.45 22.45 0 0 1-3.323 0.251zM201.046 892.592c-35.286 0-63.992-28.7-63.992-63.992s28.706-63.992 63.992-63.992 63.992 28.712 63.992 63.992-28.705 63.992-63.992 63.992z" p-id="6336"></path><path d="M201.046 764.614c-35.286 0-63.992 28.706-63.992 63.992s28.706 63.992 63.992 63.992 63.992-28.706 63.992-63.992-28.705-63.992-63.992-63.992z" p-id="6337"></path><path d="M897.023 398.883c-93.044-105.085-126.298-195.991-96.18-262.9 29.33-65.139 112.21-93.322 148.014-93.322a21.33 21.33 0 1 0 0-42.661c-53.865 0-150.52 37.638-186.91 118.465-26.173 58.116-29.522 158.855 103.144 308.708 85.403 96.49 120.85 174.688 102.473 226.159-17.017 47.706-77.468 61.768-88.133 63.89a45.78 45.78 0 0 1-1.701 0.331 21.336 21.336 0 0 0 6.612 42.165 137.583 137.583 0 0 0 9.226-1.898c24.605-5.813 91.434-26.994 114.066-89.84 24.487-67.991-12.73-158.524-110.61-269.091z" p-id="6338"></path></svg>