<?xml version="1.0" standalone="no"?><!DOCTYPE svg PUBLIC "-//W3C//DTD SVG 1.1//EN" "http://www.w3.org/Graphics/SVG/1.1/DTD/svg11.dtd"><svg t="1590387663234" class="icon" viewBox="0 0 1024 1024" version="1.1" xmlns="http://www.w3.org/2000/svg" p-id="1227" xmlns:xlink="http://www.w3.org/1999/xlink" width="128" height="128"><defs><style type="text/css"></style></defs><path d="M889.642667 64.512H93.269333c-27.477333 0-49.792 18.816-49.792 42.026667v126.037333c0 23.210667 22.314667 42.026667 49.792 42.026667H889.6c27.477333 0 49.834667-18.816 49.834667-42.026667V106.453333c0-23.210667-22.357333-41.941333-49.834667-41.941333zM586.453333 400.64H97.792c-29.994667 0-54.314667 18.858667-54.314667 42.069333v126.037334c0 23.168 24.32 42.026667 54.314667 42.026666h488.661333c29.994667 0 54.357333-18.858667 54.357334-42.026666v-126.037334c0-23.296-24.362667-42.069333-54.357334-42.069333z m168.192 42.069333v161.28a42.069333 42.069333 0 0 0 68.266667 32.853334l100.778667-80.64a41.941333 41.941333 0 0 0 0-65.536l-100.778667-80.64a41.984 41.984 0 0 0-68.266667 32.682666z m134.997334 294.101334H93.269333c-27.477333 0-49.792 18.858667-49.792 42.026666v126.037334c0 23.210667 22.314667 42.069333 49.792 42.069333H889.6c27.477333 0 49.834667-18.858667 49.834667-42.069333v-126.037334c0-23.253333-22.357333-42.026667-49.834667-42.026666z" fill="#666666" p-id="1228"></path></svg>