<?xml version="1.0" standalone="no"?><!DOCTYPE svg PUBLIC "-//W3C//DTD SVG 1.1//EN" "http://www.w3.org/Graphics/SVG/1.1/DTD/svg11.dtd"><svg t="1590387714798" class="icon" viewBox="0 0 1024 1024" version="1.1" xmlns="http://www.w3.org/2000/svg" p-id="1361" xmlns:xlink="http://www.w3.org/1999/xlink" width="128" height="128"><defs><style type="text/css"></style></defs><path d="M149.46304 951.78752h764.5184c26.37824 0 47.80032-18.10432 47.80032-40.38656v-120.99584c0-22.24128-21.42208-40.3456-47.80032-40.3456H149.504c-26.37824 0-47.84128 18.10432-47.84128 40.3456v121.11872c0 22.24128 21.46304 40.26368 47.84128 40.26368z m291.06176-322.72384h469.11488c28.79488 0 52.14208-18.10432 52.14208-40.3456v-120.99584c0-22.28224-23.3472-40.38656-52.14208-40.38656H440.5248c-28.79488 0-52.18304 18.10432-52.18304 40.38656v120.99584c0 22.3232 23.38816 40.3456 52.18304 40.3456z m-161.46432-40.3456v-154.8288a40.38656 40.38656 0 0 0-65.536-31.5392l-96.74752 77.4144a40.26368 40.26368 0 0 0 0 62.8736l96.74752 77.4144a40.30464 40.30464 0 0 0 65.536-31.3344zM149.504 306.33984h764.5184c26.37824 0 47.80032-18.10432 47.80032-40.3456V144.9984c0-22.28224-21.42208-40.38656-47.80032-40.38656H149.504c-26.37824 0-47.84128 18.10432-47.84128 40.38656v120.99584c0 22.36416 21.46304 40.3456 47.84128 40.3456z" fill="#666666" p-id="1362"></path></svg>