<?xml version="1.0" standalone="no"?><!DOCTYPE svg PUBLIC "-//W3C//DTD SVG 1.1//EN" "http://www.w3.org/Graphics/SVG/1.1/DTD/svg11.dtd"><svg t="1586398837547" class="icon" viewBox="0 0 1024 1024" version="1.1" xmlns="http://www.w3.org/2000/svg" p-id="1513" xmlns:xlink="http://www.w3.org/1999/xlink" width="128" height="128"><defs><style type="text/css"></style></defs><path d="M208.25 215.66h450.17v55.32H208.25z" p-id="1514"></path><path d="M208.25 406h355.13a254.79 254.79 0 0 1 95-23.78v-31.49H208.25zM373 620.81H208.25v55.33h159.29a453.76 453.76 0 0 1 5.46-55.33zM208.25 485.77v55.33H406.3a381.51 381.51 0 0 1 31-55.33zM682.98 592.79h-54.36v180.44h180.44v-55.4H682.98V592.79z" p-id="1515"></path><path d="M680.82 422.46c-148.67 0-269.23 120.53-269.23 269.27S532.15 961 680.82 961s269.27-120.56 269.27-269.27-120.53-269.27-269.27-269.27z m0.5 486.85c-119.44 0-216.27-96.82-216.27-216.27s96.83-216.26 216.27-216.26S897.58 573.6 897.58 693s-96.82 216.31-216.26 216.31z" p-id="1516"></path><path d="M128.85 775.09V117.94h610.67V386.3l54.94 19.01V63H73.91v767.03h329.64l-21.13-54.94H128.85z" p-id="1517"></path></svg>