<?xml version="1.0" standalone="no"?><!DOCTYPE svg PUBLIC "-//W3C//DTD SVG 1.1//EN" "http://www.w3.org/Graphics/SVG/1.1/DTD/svg11.dtd"><svg t="1587473680354" class="icon" viewBox="0 0 1024 1024" version="1.1" xmlns="http://www.w3.org/2000/svg" p-id="1488" xmlns:xlink="http://www.w3.org/1999/xlink" width="128" height="128"><defs><style type="text/css"></style></defs><path d="M487.154 112.854c6.084-6.084 14.167-9.172 22.249-9.172 8.082 0 16.074 3.088 22.249 9.172L673.138 254.43c12.26 12.26 12.26 32.147 0 44.407-5.903 5.903-13.803 9.172-22.158 9.172s-16.255-3.269-22.158-9.172l-87.997-87.997v524.712c0 17.345-14.076 31.421-31.421 31.421s-31.421-14.076-31.421-31.421V210.84l-87.997 87.997c-12.26 12.26-32.147 12.26-44.316 0-12.26-12.26-12.26-32.147-0.091-44.407l141.575-141.576z m396.758 514.269c-17.345 0-31.421 14.076-31.421 31.421V835.99c0 10.262-8.355 18.707-18.707 18.707H183.116c-10.262 0-18.707-8.355-18.707-18.707V658.453c0-17.345-14.076-31.421-31.421-31.421s-31.33 14.167-31.33 31.421v202.42c0 31.149 25.337 56.394 56.394 56.394H858.94c31.149 0 56.394-25.337 56.394-56.394v-202.42c-0.001-17.255-14.076-31.33-31.422-31.33z" fill="#999999" p-id="1489"></path></svg>