<?xml version="1.0" standalone="no"?><!DOCTYPE svg PUBLIC "-//W3C//DTD SVG 1.1//EN" "http://www.w3.org/Graphics/SVG/1.1/DTD/svg11.dtd"><svg t="1587889012370" class="icon" viewBox="0 0 1024 1024" version="1.1" xmlns="http://www.w3.org/2000/svg" p-id="1881" xmlns:xlink="http://www.w3.org/1999/xlink" width="128" height="128"><defs><style type="text/css"></style></defs><path d="M41.627826 0.178087m89.043478 0l801.391305 0q89.043478 0 89.043478 89.043478l0 801.391305q0 89.043478-89.043478 89.043478l-801.391305 0q-89.043478 0-89.043478-89.043478l0-801.391305q0-89.043478 89.043478-89.043478Z" fill="#000000" fill-opacity=".5" p-id="1882"></path><path d="M800.189217 807.535304l-224.834782-224.834782a33.391304 33.391304 0 0 1 47.282087-47.193044l221.762782 221.807305v-218.156522a44.521739 44.521739 0 1 1 89.043479 0v223.855304a133.565217 133.565217 0 0 1-133.565218 133.565218h-214.772869a44.521739 44.521739 0 1 1 0-89.043479H800.189217z" fill="#FFFFFF" p-id="1883"></path><path d="M253.239652 175.014957l263.657739 263.657739a33.391304 33.391304 0 0 1-47.193043 47.193043L212.190609 228.485565v214.77287a44.521739 44.521739 0 0 1-89.043479 0V219.40313a133.565217 133.565217 0 0 1 133.565218-133.565217h214.772869a44.521739 44.521739 0 0 1 0 89.043478H256.75687c-1.202087 0-2.359652 0-3.56174 0.133566z" fill="#FFFFFF" p-id="1884"></path></svg>